<svg id="Layer_1" data-name="Layer 1" xmlns="http://www.w3.org/2000/svg" viewBox="0 0 235.5 85.8"><defs><style>.cls-1{fill:#231f20;}.cls-2{fill:#c0d72f;}.cls-3{fill:#d6e153;}.cls-4{fill:#cbd398;}.cls-5{fill:#ced779;}</style></defs><path class="cls-1" d="M138.56,296.89h2.08v20.8h-2.08v2.08H134.4v-2.08h-2.08v-2.08h-2.08v-2.08h-2.08v2.08h-2.08v2.08H124v2.08h-8.32v-2.08H113.6v-20.8h2.08v4.16h2.08V299h2.08v-2.08h-4.16v-2.08H124v2.08h2.08v10.4h2.08v-2.08h2.08v2.08h2.08v-10.4h2.08v-2.08h4.16Z" transform="translate(-84.88 -251.64)"/><path class="cls-1" d="M167.68,299h2.08v16.64h-2.08v2.08H165.6v2.08H149v-2.08h-2.08v-2.08H144.8V299h2.08v2.08H149V299H151v-2.08H149v-2.08H165.6v2.08h2.08Zm-4.16,2.08h-6.24v10.4h6.24Z" transform="translate(-84.88 -251.64)"/><path class="cls-1" d="M196.8,299h2.08v6.24H196.8v2.08h-2.08v2.08h2.08v2.08h2.08v6.24H196.8v2.08h-2.08v-2.08h-2.08v-2.08h-2.08v-2.08h-2.08v-2.08H186.4v6.24h-2.08v2.08H176v-2.08h-2.08v-20.8H176v4.16h2.08V299h2.08v-2.08H176v-2.08h18.72v2.08h2.08Zm-4.16,4.16v-2.08H186.4v2.08Z" transform="translate(-84.88 -251.64)"/><path class="cls-1" d="M225.92,296.89H228v4.16h-2.08v2.08h-2.08v2.08h-2.08v2.08h2.08v2.08h2.08v2.08H228v6.24h-2.08v2.08h-4.16v-2.08h-2.08v-2.08H217.6v-2.08h-2.08v4.16h-2.08v2.08h-8.32v-2.08H203v-20.8h2.08v4.16h2.08V299h2.08v-2.08h-4.16v-2.08h8.32v2.08h2.08v4.16h2.08V299h2.08v-2.08h2.08v-2.08h4.16Z" transform="translate(-84.88 -251.64)"/><path class="cls-1" d="M255,296.89h2.08V299H255v2.08h-10.4v2.08H255v2.08h2.08v10.4H255v2.08H253v2.08H234.24v-2.08h-2.08v-6.24h2.08v-2.08H248.8v-2.08H234.24v-2.08h-2.08V299h2.08v2.08h2.08V299h2.08v-2.08h-2.08v-2.08H255Z" transform="translate(-84.88 -251.64)"/><path class="cls-1" d="M84.88,277.1h22.27v-6.37H88.06v-3.18H84.88V254.82h3.18v-3.18h31.82V258H97.61v6.37H116.7v3.18h3.18v12.73H116.7v3.18H84.88Z" transform="translate(-84.88 -251.64)"/><path class="cls-1" d="M135.79,283.46H123.06V254.82h3.19v-3.18h28.64v3.18h3.18v28.64H145.34V270.73h-9.55Zm0-19.09h9.55V258h-9.55Z" transform="translate(-84.88 -251.64)"/><path class="cls-1" d="M174,283.46H161.25V251.64h31.83v3.18h3.18v9.55h-3.18v6.36h3.18v12.73H183.53V270.73H174Zm0-19.09h9.55V258H174Z" transform="translate(-84.88 -251.64)"/><path class="cls-1" d="M212.17,283.46H199.44V251.64h12.73v9.54h3.18V258h3.19v-3.18h3.18v-3.18h15.91V258h-3.18v3.18h-3.18v3.19h-3.19v6.36h3.19v3.18h3.18v3.19h3.18v6.36H221.72v-3.18h-3.18V277.1h-3.19v-3.19h-3.18Z" transform="translate(-84.88 -251.64)"/><path class="cls-1" d="M244,280.28h-3.19V254.82H244v-3.18h31.82V258H253.54v6.37h9.55v6.36h-9.55v6.37h22.28v6.36H244Z" transform="translate(-84.88 -251.64)"/><path class="cls-1" d="M291.73,283.46H279V251.64h12.73v3.18h3.18V258h3.18v3.18h3.19V258h3.18v-3.18h3.18v-3.18h12.73v31.82H307.64V267.55h-3.18v3.18h-3.18v3.18h-3.19v-3.18h-3.18v-3.18h-3.18Z" transform="translate(-84.88 -251.64)"/><rect class="cls-1" x="315.56" y="315.31" width="2.76" height="2.93" transform="translate(-85.42 381.37) rotate(-89.87)"/><rect class="cls-1" x="315.56" y="312.55" width="2.76" height="2.93" transform="translate(-82.66 378.62) rotate(-89.87)"/><rect class="cls-1" x="315.57" y="309.79" width="2.76" height="2.93" transform="translate(-79.89 375.87) rotate(-89.87)"/><rect class="cls-1" x="315.58" y="307.03" width="2.76" height="2.93" transform="translate(-77.13 373.12) rotate(-89.87)"/><rect class="cls-1" x="315.58" y="304.27" width="2.76" height="2.93" transform="translate(-74.36 370.38) rotate(-89.87)"/><rect class="cls-1" x="312.62" y="318.06" width="2.76" height="2.93" transform="translate(-91.1 381.18) rotate(-89.87)"/><rect class="cls-2" x="312.63" y="315.3" width="2.76" height="2.93" transform="translate(-88.34 378.43) rotate(-89.87)"/><rect class="cls-2" x="312.64" y="312.54" width="2.76" height="2.93" transform="translate(-85.57 375.68) rotate(-89.87)"/><rect class="cls-2" x="312.64" y="309.78" width="2.76" height="2.93" transform="translate(-82.81 372.94) rotate(-89.87)"/><rect class="cls-2" x="312.65" y="307.02" width="2.76" height="2.93" transform="translate(-80.04 370.19) rotate(-89.87)"/><rect class="cls-2" x="312.66" y="304.26" width="2.76" height="2.93" transform="translate(-77.27 367.44) rotate(-89.87)"/><rect class="cls-1" x="312.66" y="301.5" width="2.76" height="2.93" transform="translate(-74.51 364.69) rotate(-89.87)"/><rect class="cls-1" x="309.69" y="320.82" width="2.76" height="2.93" transform="translate(-96.78 380.99) rotate(-89.87)"/><rect class="cls-2" x="309.7" y="318.06" width="2.76" height="2.93" transform="translate(-94.02 378.24) rotate(-89.87)"/><rect class="cls-2" x="309.7" y="315.3" width="2.76" height="2.93" transform="translate(-91.25 375.5) rotate(-89.87)"/><rect class="cls-2" x="309.71" y="312.54" width="2.76" height="2.93" transform="translate(-88.49 372.75) rotate(-89.87)"/><rect class="cls-2" x="309.72" y="309.78" width="2.76" height="2.93" transform="translate(-85.72 370) rotate(-89.87)"/><rect class="cls-2" x="309.72" y="307.02" width="2.76" height="2.93" transform="translate(-82.95 367.25) rotate(-89.87)"/><rect class="cls-2" x="309.73" y="304.26" width="2.76" height="2.93" transform="translate(-80.19 364.51) rotate(-89.87)"/><rect class="cls-2" x="309.73" y="301.5" width="2.76" height="2.93" transform="translate(-77.42 361.76) rotate(-89.87)"/><rect class="cls-1" x="309.74" y="298.74" width="2.76" height="2.93" transform="translate(-74.66 359.01) rotate(-89.87)"/><rect class="cls-1" x="306.76" y="320.81" width="2.76" height="2.93" transform="translate(-99.7 378.06) rotate(-89.87)"/><rect class="cls-3" x="306.77" y="318.05" width="2.76" height="2.93" transform="translate(-96.93 375.31) rotate(-89.87)"/><rect class="cls-2" x="306.78" y="315.29" width="2.76" height="2.93" transform="translate(-94.17 372.56) rotate(-89.87)"/><rect class="cls-2" x="306.78" y="312.53" width="2.76" height="2.93" transform="translate(-91.4 369.82) rotate(-89.87)"/><rect class="cls-2" x="306.79" y="309.77" width="2.76" height="2.93" transform="translate(-88.63 367.07) rotate(-89.87)"/><rect class="cls-2" x="306.79" y="307.01" width="2.76" height="2.93" transform="translate(-85.87 364.32) rotate(-89.87)"/><rect class="cls-2" x="306.8" y="304.25" width="2.76" height="2.93" transform="translate(-83.1 361.57) rotate(-89.87)"/><rect class="cls-2" x="306.81" y="301.49" width="2.76" height="2.93" transform="translate(-80.34 358.83) rotate(-89.87)"/><rect class="cls-1" x="306.81" y="298.73" width="2.76" height="2.93" transform="translate(-77.57 356.08) rotate(-89.87)"/><rect class="cls-1" x="303.84" y="320.8" width="2.76" height="2.93" transform="translate(-102.61 375.12) rotate(-89.87)"/><rect class="cls-3" x="303.84" y="318.04" width="2.76" height="2.93" transform="translate(-99.85 372.38) rotate(-89.87)"/><rect class="cls-3" x="303.85" y="315.28" width="2.76" height="2.93" transform="translate(-97.08 369.63) rotate(-89.87)"/><rect class="cls-3" x="303.85" y="312.52" width="2.76" height="2.93" transform="translate(-94.32 366.88) rotate(-89.87)"/><rect class="cls-3" x="303.86" y="309.76" width="2.76" height="2.93" transform="translate(-91.55 364.13) rotate(-89.87)"/><rect class="cls-3" x="303.87" y="307" width="2.76" height="2.93" transform="translate(-88.78 361.39) rotate(-89.87)"/><rect class="cls-3" x="303.87" y="304.24" width="2.76" height="2.93" transform="translate(-86.02 358.64) rotate(-89.87)"/><rect class="cls-2" x="303.88" y="301.48" width="2.76" height="2.93" transform="translate(-83.25 355.89) rotate(-89.87)"/><rect class="cls-1" x="303.89" y="298.72" width="2.76" height="2.93" transform="translate(-80.48 353.14) rotate(-89.87)"/><rect class="cls-1" x="300.89" y="329.08" width="2.76" height="2.93" transform="translate(-113.83 380.43) rotate(-89.87)"/><rect class="cls-1" x="300.9" y="326.32" width="2.76" height="2.93" transform="translate(-111.06 377.69) rotate(-89.87)"/><rect class="cls-1" x="300.9" y="323.56" width="2.76" height="2.93" transform="translate(-108.29 374.94) rotate(-89.87)"/><rect class="cls-1" x="300.91" y="318.04" width="2.76" height="2.93" transform="translate(-102.76 369.44) rotate(-89.87)"/><rect class="cls-3" x="300.92" y="315.28" width="2.76" height="2.93" transform="translate(-100 366.7) rotate(-89.87)"/><rect class="cls-1" x="300.93" y="312.52" width="2.76" height="2.93" transform="translate(-97.23 363.95) rotate(-89.87)"/><rect class="cls-1" x="300.93" y="309.76" width="2.76" height="2.93" transform="translate(-94.46 361.2) rotate(-89.87)"/><rect class="cls-1" x="300.94" y="307" width="2.76" height="2.93" transform="translate(-91.7 358.45) rotate(-89.87)"/><rect class="cls-3" x="300.95" y="304.24" width="2.76" height="2.93" transform="translate(-88.93 355.7) rotate(-89.87)"/><rect class="cls-1" x="300.95" y="301.48" width="2.76" height="2.93" transform="translate(-86.17 352.96) rotate(-89.87)"/><rect class="cls-1" x="300.96" y="295.96" width="2.76" height="2.93" transform="translate(-80.63 347.46) rotate(-89.87)"/><rect class="cls-1" x="300.97" y="293.2" width="2.76" height="2.93" transform="translate(-77.87 344.71) rotate(-89.87)"/><rect class="cls-1" x="300.98" y="290.44" width="2.76" height="2.93" transform="translate(-75.1 341.97) rotate(-89.87)"/><rect class="cls-1" x="297.96" y="331.83" width="2.76" height="2.93" transform="translate(-119.51 380.25) rotate(-89.87)"/><rect class="cls-2" x="297.96" y="329.07" width="2.76" height="2.93" transform="translate(-116.74 377.5) rotate(-89.87)"/><rect class="cls-2" x="297.97" y="326.31" width="2.76" height="2.93" transform="translate(-113.97 374.75) rotate(-89.87)"/><rect class="cls-2" x="297.97" y="323.55" width="2.76" height="2.93" transform="translate(-111.21 372) rotate(-89.87)"/><rect class="cls-1" x="297.98" y="320.79" width="2.76" height="2.93" transform="translate(-108.44 369.26) rotate(-89.87)"/><rect class="cls-1" x="297.99" y="315.27" width="2.76" height="2.93" transform="translate(-102.91 363.76) rotate(-89.87)"/><rect class="cls-4" x="298" y="312.51" width="2.76" height="2.93" transform="translate(-100.14 361.01) rotate(-89.87)"/><rect class="cls-4" x="298.01" y="309.75" width="2.76" height="2.93" transform="translate(-97.38 358.27) rotate(-89.87)"/><rect class="cls-4" x="298.01" y="306.99" width="2.76" height="2.93" transform="translate(-94.61 355.52) rotate(-89.87)"/><rect class="cls-1" x="298.02" y="304.23" width="2.76" height="2.93" transform="translate(-91.85 352.77) rotate(-89.87)"/><rect class="cls-1" x="298.03" y="298.71" width="2.76" height="2.93" transform="translate(-86.31 347.28) rotate(-89.87)"/><rect class="cls-3" x="298.04" y="295.95" width="2.76" height="2.93" transform="translate(-83.55 344.53) rotate(-89.87)"/><rect class="cls-2" x="298.04" y="293.19" width="2.76" height="2.93" transform="translate(-80.78 341.78) rotate(-89.87)"/><rect class="cls-2" x="298.05" y="290.43" width="2.76" height="2.93" transform="translate(-78.02 339.03) rotate(-89.87)"/><rect class="cls-1" x="298.06" y="287.67" width="2.76" height="2.93" transform="translate(-75.25 336.29) rotate(-89.87)"/><rect class="cls-1" x="295.02" y="334.58" width="2.76" height="2.93" transform="translate(-125.19 380.06) rotate(-89.87)"/><rect class="cls-2" x="295.03" y="331.82" width="2.76" height="2.93" transform="translate(-122.42 377.31) rotate(-89.87)"/><rect class="cls-2" x="295.03" y="329.06" width="2.76" height="2.93" transform="translate(-119.65 374.56) rotate(-89.87)"/><rect class="cls-2" x="295.04" y="326.3" width="2.76" height="2.93" transform="translate(-116.89 371.82) rotate(-89.87)"/><rect class="cls-2" x="295.05" y="323.54" width="2.76" height="2.93" transform="translate(-114.12 369.07) rotate(-89.87)"/><rect class="cls-2" x="295.05" y="320.78" width="2.76" height="2.93" transform="translate(-111.36 366.32) rotate(-89.87)"/><rect class="cls-1" x="295.06" y="318.02" width="2.76" height="2.93" transform="translate(-108.59 363.57) rotate(-89.87)"/><rect class="cls-4" x="295.07" y="315.26" width="2.76" height="2.93" transform="translate(-105.82 360.83) rotate(-89.87)"/><rect class="cls-4" x="295.07" y="312.5" width="2.76" height="2.93" transform="translate(-103.06 358.08) rotate(-89.87)"/><rect class="cls-4" x="295.08" y="309.74" width="2.76" height="2.93" transform="translate(-100.29 355.33) rotate(-89.87)"/><rect class="cls-4" x="295.08" y="306.98" width="2.76" height="2.93" transform="translate(-97.53 352.58) rotate(-89.87)"/><rect class="cls-4" x="295.09" y="304.23" width="2.76" height="2.93" transform="translate(-94.76 349.84) rotate(-89.87)"/><rect class="cls-1" x="295.1" y="301.47" width="2.76" height="2.93" transform="translate(-91.99 347.09) rotate(-89.87)"/><rect class="cls-3" x="295.1" y="298.71" width="2.76" height="2.93" transform="translate(-89.23 344.34) rotate(-89.87)"/><rect class="cls-3" x="295.11" y="295.95" width="2.76" height="2.93" transform="translate(-86.46 341.59) rotate(-89.87)"/><rect class="cls-2" x="295.12" y="293.19" width="2.76" height="2.93" transform="translate(-83.7 338.85) rotate(-89.87)"/><rect class="cls-2" x="295.12" y="290.43" width="2.76" height="2.93" transform="translate(-80.93 336.1) rotate(-89.87)"/><rect class="cls-2" x="295.13" y="287.67" width="2.76" height="2.93" transform="translate(-78.16 333.35) rotate(-89.87)"/><rect class="cls-1" x="295.13" y="284.91" width="2.76" height="2.93" transform="translate(-75.4 330.6) rotate(-89.87)"/><rect class="cls-1" x="292.09" y="334.58" width="2.76" height="2.93" transform="translate(-128.1 377.13) rotate(-89.87)"/><rect class="cls-3" x="292.1" y="331.82" width="2.76" height="2.93" transform="translate(-125.34 374.38) rotate(-89.87)"/><rect class="cls-2" x="292.11" y="329.06" width="2.76" height="2.93" transform="translate(-122.57 371.63) rotate(-89.87)"/><rect class="cls-2" x="292.11" y="326.3" width="2.76" height="2.93" transform="translate(-119.8 368.88) rotate(-89.87)"/><rect class="cls-2" x="292.12" y="323.54" width="2.76" height="2.93" transform="translate(-117.04 366.14) rotate(-89.87)"/><rect class="cls-1" x="292.13" y="320.78" width="2.76" height="2.93" transform="translate(-114.27 363.39) rotate(-89.87)"/><rect class="cls-4" x="292.13" y="318.02" width="2.76" height="2.93" transform="translate(-111.51 360.64) rotate(-89.87)"/><rect class="cls-4" x="292.14" y="315.26" width="2.76" height="2.93" transform="translate(-108.74 357.89) rotate(-89.87)"/><rect class="cls-4" x="292.14" y="312.5" width="2.76" height="2.93" transform="translate(-105.97 355.15) rotate(-89.87)"/><rect class="cls-4" x="292.15" y="309.74" width="2.76" height="2.93" transform="translate(-103.21 352.4) rotate(-89.87)"/><rect class="cls-4" x="292.16" y="306.98" width="2.76" height="2.93" transform="translate(-100.44 349.65) rotate(-89.87)"/><rect class="cls-4" x="292.16" y="304.22" width="2.76" height="2.93" transform="translate(-97.67 346.9) rotate(-89.87)"/><rect class="cls-4" x="292.17" y="301.46" width="2.76" height="2.93" transform="translate(-94.91 344.15) rotate(-89.87)"/><rect class="cls-1" x="292.18" y="298.7" width="2.76" height="2.93" transform="translate(-92.14 341.41) rotate(-89.87)"/><rect class="cls-3" x="292.18" y="295.94" width="2.76" height="2.93" transform="translate(-89.38 338.66) rotate(-89.87)"/><rect class="cls-2" x="292.19" y="293.18" width="2.76" height="2.93" transform="translate(-86.61 335.91) rotate(-89.87)"/><rect class="cls-2" x="292.19" y="290.42" width="2.76" height="2.93" transform="translate(-83.84 333.16) rotate(-89.87)"/><rect class="cls-2" x="292.2" y="287.66" width="2.76" height="2.93" transform="translate(-81.08 330.42) rotate(-89.87)"/><rect class="cls-1" x="292.21" y="284.9" width="2.76" height="2.93" transform="translate(-78.31 327.67) rotate(-89.87)"/><rect class="cls-1" x="289.17" y="334.57" width="2.76" height="2.93" transform="translate(-131.02 374.19) rotate(-89.87)"/><rect class="cls-3" x="289.17" y="331.81" width="2.76" height="2.93" transform="translate(-128.25 371.44) rotate(-89.87)"/><rect class="cls-2" x="289.18" y="329.05" width="2.76" height="2.93" transform="translate(-125.48 368.7) rotate(-89.87)"/><rect class="cls-2" x="289.19" y="326.29" width="2.76" height="2.93" transform="translate(-122.72 365.95) rotate(-89.87)"/><rect class="cls-2" x="289.19" y="323.53" width="2.76" height="2.93" transform="translate(-119.95 363.2) rotate(-89.87)"/><rect class="cls-1" x="289.2" y="320.77" width="2.76" height="2.93" transform="translate(-117.19 360.45) rotate(-89.87)"/><rect class="cls-4" x="289.2" y="318.01" width="2.76" height="2.93" transform="translate(-114.42 357.71) rotate(-89.87)"/><rect class="cls-4" x="289.21" y="315.25" width="2.76" height="2.93" transform="translate(-111.65 354.96) rotate(-89.87)"/><rect class="cls-4" x="289.22" y="312.49" width="2.76" height="2.93" transform="translate(-108.89 352.21) rotate(-89.87)"/><rect class="cls-4" x="289.22" y="309.73" width="2.76" height="2.93" transform="translate(-106.12 349.46) rotate(-89.87)"/><rect class="cls-4" x="289.23" y="306.97" width="2.76" height="2.93" transform="translate(-103.36 346.72) rotate(-89.87)"/><rect class="cls-4" x="289.24" y="304.21" width="2.76" height="2.93" transform="translate(-100.59 343.97) rotate(-89.87)"/><rect class="cls-4" x="289.24" y="301.45" width="2.76" height="2.93" transform="translate(-97.82 341.22) rotate(-89.87)"/><rect class="cls-1" x="289.25" y="298.69" width="2.76" height="2.93" transform="translate(-95.06 338.47) rotate(-89.87)"/><rect class="cls-3" x="289.25" y="295.93" width="2.76" height="2.93" transform="translate(-92.29 335.73) rotate(-89.87)"/><rect class="cls-2" x="289.26" y="293.17" width="2.76" height="2.93" transform="translate(-89.52 332.98) rotate(-89.87)"/><rect class="cls-2" x="289.27" y="290.41" width="2.76" height="2.93" transform="translate(-86.76 330.23) rotate(-89.87)"/><rect class="cls-2" x="289.27" y="287.65" width="2.76" height="2.93" transform="translate(-83.99 327.48) rotate(-89.87)"/><rect class="cls-1" x="289.28" y="284.89" width="2.76" height="2.93" transform="translate(-81.23 324.74) rotate(-89.87)"/><rect class="cls-1" x="286.24" y="334.56" width="2.76" height="2.93" transform="translate(-133.93 371.26) rotate(-89.87)"/><rect class="cls-3" x="286.25" y="331.8" width="2.76" height="2.93" transform="translate(-131.16 368.51) rotate(-89.87)"/><rect class="cls-2" x="286.25" y="329.04" width="2.76" height="2.93" transform="translate(-128.4 365.76) rotate(-89.87)"/><rect class="cls-2" x="286.26" y="326.28" width="2.76" height="2.93" transform="translate(-125.63 363.01) rotate(-89.87)"/><rect class="cls-2" x="286.26" y="323.52" width="2.76" height="2.93" transform="translate(-122.87 360.27) rotate(-89.87)"/><rect class="cls-1" x="286.27" y="320.76" width="2.76" height="2.93" transform="translate(-120.1 357.52) rotate(-89.87)"/><rect class="cls-4" x="286.28" y="318" width="2.76" height="2.93" transform="translate(-117.33 354.77) rotate(-89.87)"/><rect class="cls-4" x="286.28" y="315.25" width="2.76" height="2.93" transform="translate(-114.57 352.02) rotate(-89.87)"/><rect class="cls-4" x="286.29" y="312.49" width="2.76" height="2.93" transform="translate(-111.8 349.28) rotate(-89.87)"/><rect class="cls-4" x="286.3" y="309.73" width="2.76" height="2.93" transform="translate(-109.04 346.53) rotate(-89.87)"/><rect class="cls-4" x="286.3" y="306.97" width="2.76" height="2.93" transform="translate(-106.27 343.78) rotate(-89.87)"/><rect class="cls-4" x="286.31" y="304.21" width="2.76" height="2.93" transform="translate(-103.5 341.03) rotate(-89.87)"/><rect class="cls-5" x="286.31" y="301.45" width="2.76" height="2.93" transform="translate(-100.74 338.29) rotate(-89.87)"/><rect class="cls-1" x="286.32" y="298.69" width="2.76" height="2.93" transform="translate(-97.97 335.54) rotate(-89.87)"/><rect class="cls-3" x="286.33" y="295.93" width="2.76" height="2.93" transform="translate(-95.21 332.79) rotate(-89.87)"/><rect class="cls-2" x="286.33" y="293.17" width="2.76" height="2.93" transform="translate(-92.44 330.04) rotate(-89.87)"/><rect class="cls-2" x="286.34" y="290.41" width="2.76" height="2.93" transform="translate(-89.67 327.3) rotate(-89.87)"/><rect class="cls-2" x="286.34" y="287.65" width="2.76" height="2.93" transform="translate(-86.91 324.55) rotate(-89.87)"/><rect class="cls-1" x="286.35" y="284.89" width="2.76" height="2.93" transform="translate(-84.14 321.8) rotate(-89.87)"/><rect class="cls-1" x="283.31" y="334.56" width="2.76" height="2.93" transform="translate(-136.84 368.32) rotate(-89.87)"/><rect class="cls-3" x="283.32" y="331.8" width="2.76" height="2.93" transform="translate(-134.08 365.58) rotate(-89.87)"/><rect class="cls-3" x="283.32" y="329.04" width="2.76" height="2.93" transform="translate(-131.31 362.83) rotate(-89.87)"/><rect class="cls-2" x="283.33" y="326.28" width="2.76" height="2.93" transform="translate(-128.55 360.08) rotate(-89.87)"/><rect class="cls-2" x="283.34" y="323.52" width="2.76" height="2.93" transform="translate(-125.78 357.33) rotate(-89.87)"/><rect class="cls-2" x="283.34" y="320.76" width="2.76" height="2.93" transform="translate(-123.01 354.59) rotate(-89.87)"/><rect class="cls-1" x="283.35" y="318" width="2.76" height="2.93" transform="translate(-120.25 351.84) rotate(-89.87)"/><rect class="cls-4" x="283.36" y="315.24" width="2.76" height="2.93" transform="translate(-117.48 349.09) rotate(-89.87)"/><rect class="cls-4" x="283.36" y="312.48" width="2.76" height="2.93" transform="translate(-114.72 346.34) rotate(-89.87)"/><rect class="cls-5" x="283.37" y="309.72" width="2.76" height="2.93" transform="translate(-111.95 343.6) rotate(-89.87)"/><rect class="cls-5" x="283.37" y="306.96" width="2.76" height="2.93" transform="translate(-109.18 340.85) rotate(-89.87)"/><rect class="cls-5" x="283.38" y="304.2" width="2.76" height="2.93" transform="translate(-106.42 338.1) rotate(-89.87)"/><rect class="cls-1" x="283.39" y="301.44" width="2.76" height="2.93" transform="translate(-103.65 335.35) rotate(-89.87)"/><rect class="cls-3" x="283.39" y="298.68" width="2.76" height="2.93" transform="translate(-100.89 332.6) rotate(-89.87)"/><rect class="cls-3" x="283.4" y="295.92" width="2.76" height="2.93" transform="translate(-98.12 329.86) rotate(-89.87)"/><rect class="cls-2" x="283.4" y="293.16" width="2.76" height="2.93" transform="translate(-95.35 327.11) rotate(-89.87)"/><rect class="cls-2" x="283.41" y="290.4" width="2.76" height="2.93" transform="translate(-92.59 324.36) rotate(-89.87)"/><rect class="cls-2" x="283.42" y="287.64" width="2.76" height="2.93" transform="translate(-89.82 321.61) rotate(-89.87)"/><rect class="cls-1" x="283.42" y="284.88" width="2.76" height="2.93" transform="translate(-87.06 318.87) rotate(-89.87)"/><rect class="cls-1" x="280.39" y="331.79" width="2.76" height="2.93" transform="translate(-136.99 362.64) rotate(-89.87)"/><rect class="cls-3" x="280.4" y="329.03" width="2.76" height="2.93" transform="translate(-134.23 359.89) rotate(-89.87)"/><rect class="cls-3" x="280.4" y="326.27" width="2.76" height="2.93" transform="translate(-131.46 357.15) rotate(-89.87)"/><rect class="cls-2" x="280.41" y="323.51" width="2.76" height="2.93" transform="translate(-128.7 354.4) rotate(-89.87)"/><rect class="cls-1" x="280.42" y="320.75" width="2.76" height="2.93" transform="translate(-125.93 351.65) rotate(-89.87)"/><rect class="cls-1" x="280.43" y="315.23" width="2.76" height="2.93" transform="translate(-120.4 346.16) rotate(-89.87)"/><rect class="cls-4" x="280.43" y="312.47" width="2.76" height="2.93" transform="translate(-117.63 343.41) rotate(-89.87)"/><rect class="cls-5" x="280.44" y="309.71" width="2.76" height="2.93" transform="translate(-114.86 340.66) rotate(-89.87)"/><rect class="cls-5" x="280.45" y="306.95" width="2.76" height="2.93" transform="translate(-112.1 337.91) rotate(-89.87)"/><rect class="cls-1" x="280.45" y="304.19" width="2.76" height="2.93" transform="translate(-109.33 335.17) rotate(-89.87)"/><rect class="cls-1" x="280.46" y="298.67" width="2.76" height="2.93" transform="translate(-103.8 329.67) rotate(-89.87)"/><rect class="cls-3" x="280.47" y="295.91" width="2.76" height="2.93" transform="translate(-101.03 326.92) rotate(-89.87)"/><rect class="cls-2" x="280.48" y="293.15" width="2.76" height="2.93" transform="translate(-98.27 324.18) rotate(-89.87)"/><rect class="cls-2" x="280.48" y="290.39" width="2.76" height="2.93" transform="translate(-95.5 321.43) rotate(-89.87)"/><rect class="cls-1" x="280.49" y="287.63" width="2.76" height="2.93" transform="translate(-92.74 318.68) rotate(-89.87)"/><rect class="cls-1" x="277.47" y="329.02" width="2.76" height="2.93" transform="translate(-137.14 356.96) rotate(-89.87)"/><rect class="cls-1" x="277.48" y="326.26" width="2.76" height="2.93" transform="translate(-134.38 354.21) rotate(-89.87)"/><rect class="cls-1" x="277.48" y="323.51" width="2.76" height="2.93" transform="translate(-131.61 351.46) rotate(-89.87)"/><rect class="cls-1" x="277.49" y="317.99" width="2.76" height="2.93" transform="translate(-126.08 345.97) rotate(-89.87)"/><rect class="cls-2" x="277.5" y="315.23" width="2.76" height="2.93" transform="translate(-123.31 343.22) rotate(-89.87)"/><rect class="cls-1" x="277.51" y="312.47" width="2.76" height="2.93" transform="translate(-120.55 340.47) rotate(-89.87)"/><rect class="cls-1" x="277.51" y="309.71" width="2.76" height="2.93" transform="translate(-117.78 337.73) rotate(-89.87)"/><rect class="cls-1" x="277.52" y="306.95" width="2.76" height="2.93" transform="translate(-115.01 334.98) rotate(-89.87)"/><rect class="cls-2" x="277.52" y="304.19" width="2.76" height="2.93" transform="translate(-112.25 332.23) rotate(-89.87)"/><rect class="cls-1" x="277.53" y="301.43" width="2.76" height="2.93" transform="translate(-109.48 329.48) rotate(-89.87)"/><rect class="cls-1" x="277.54" y="295.91" width="2.76" height="2.93" transform="translate(-103.95 323.99) rotate(-89.87)"/><rect class="cls-1" x="277.55" y="293.15" width="2.76" height="2.93" transform="translate(-101.18 321.24) rotate(-89.87)"/><rect class="cls-1" x="277.56" y="290.39" width="2.76" height="2.93" transform="translate(-98.42 318.49) rotate(-89.87)"/><rect class="cls-1" x="274.56" y="320.74" width="2.76" height="2.93" transform="translate(-131.76 345.78) rotate(-89.87)"/><rect class="cls-2" x="274.57" y="317.98" width="2.76" height="2.93" transform="translate(-128.99 343.04) rotate(-89.87)"/><rect class="cls-2" x="274.57" y="315.22" width="2.76" height="2.93" transform="translate(-126.23 340.29) rotate(-89.87)"/><rect class="cls-2" x="274.58" y="312.46" width="2.76" height="2.93" transform="translate(-123.46 337.54) rotate(-89.87)"/><rect class="cls-2" x="274.58" y="309.7" width="2.76" height="2.93" transform="translate(-120.69 334.79) rotate(-89.87)"/><rect class="cls-2" x="274.59" y="306.94" width="2.76" height="2.93" transform="translate(-117.93 332.05) rotate(-89.87)"/><rect class="cls-2" x="274.6" y="304.18" width="2.76" height="2.93" transform="translate(-115.16 329.3) rotate(-89.87)"/><rect class="cls-2" x="274.6" y="301.42" width="2.76" height="2.93" transform="translate(-112.4 326.55) rotate(-89.87)"/><rect class="cls-1" x="274.61" y="298.66" width="2.76" height="2.93" transform="translate(-109.63 323.8) rotate(-89.87)"/><rect class="cls-1" x="271.63" y="320.73" width="2.76" height="2.93" transform="translate(-134.67 342.85) rotate(-89.87)"/><rect class="cls-2" x="271.64" y="317.97" width="2.76" height="2.93" transform="translate(-131.91 340.1) rotate(-89.87)"/><rect class="cls-2" x="271.64" y="315.21" width="2.76" height="2.93" transform="translate(-129.14 337.35) rotate(-89.87)"/><rect class="cls-2" x="271.65" y="312.45" width="2.76" height="2.93" transform="translate(-126.37 334.61) rotate(-89.87)"/><rect class="cls-2" x="271.66" y="309.69" width="2.76" height="2.93" transform="translate(-123.61 331.86) rotate(-89.87)"/><rect class="cls-2" x="271.66" y="306.93" width="2.76" height="2.93" transform="translate(-120.84 329.11) rotate(-89.87)"/><rect class="cls-2" x="271.67" y="304.17" width="2.76" height="2.93" transform="translate(-118.08 326.36) rotate(-89.87)"/><rect class="cls-2" x="271.68" y="301.41" width="2.76" height="2.93" transform="translate(-115.31 323.62) rotate(-89.87)"/><rect class="cls-1" x="271.68" y="298.65" width="2.76" height="2.93" transform="translate(-112.54 320.87) rotate(-89.87)"/><rect class="cls-1" x="268.7" y="320.73" width="2.76" height="2.93" transform="translate(-137.59 339.91) rotate(-89.87)"/><rect class="cls-3" x="268.71" y="317.97" width="2.76" height="2.93" transform="translate(-134.82 337.17) rotate(-89.87)"/><rect class="cls-2" x="268.72" y="315.21" width="2.76" height="2.93" transform="translate(-132.05 334.42) rotate(-89.87)"/><rect class="cls-2" x="268.72" y="312.45" width="2.76" height="2.93" transform="translate(-129.29 331.67) rotate(-89.87)"/><rect class="cls-2" x="268.73" y="309.69" width="2.76" height="2.93" transform="translate(-126.52 328.92) rotate(-89.87)"/><rect class="cls-2" x="268.74" y="306.93" width="2.76" height="2.93" transform="translate(-123.76 326.18) rotate(-89.87)"/><rect class="cls-2" x="268.74" y="304.17" width="2.76" height="2.93" transform="translate(-120.99 323.43) rotate(-89.87)"/><rect class="cls-3" x="268.75" y="301.41" width="2.76" height="2.93" transform="translate(-118.22 320.68) rotate(-89.87)"/><rect class="cls-1" x="268.75" y="298.65" width="2.76" height="2.93" transform="translate(-115.46 317.93) rotate(-89.87)"/><rect class="cls-1" x="265.78" y="317.96" width="2.76" height="2.93" transform="translate(-137.74 334.23) rotate(-89.87)"/><rect class="cls-3" x="265.79" y="315.2" width="2.76" height="2.93" transform="translate(-134.97 331.49) rotate(-89.87)"/><rect class="cls-3" x="265.8" y="312.44" width="2.76" height="2.93" transform="translate(-132.2 328.74) rotate(-89.87)"/><rect class="cls-3" x="265.8" y="309.68" width="2.76" height="2.93" transform="translate(-129.44 325.99) rotate(-89.87)"/><rect class="cls-3" x="265.81" y="306.92" width="2.76" height="2.93" transform="translate(-126.67 323.24) rotate(-89.87)"/><rect class="cls-3" x="265.81" y="304.16" width="2.76" height="2.93" transform="translate(-123.9 320.5) rotate(-89.87)"/><rect class="cls-1" x="265.82" y="301.4" width="2.76" height="2.93" transform="translate(-121.14 317.75) rotate(-89.87)"/><rect class="cls-1" x="262.86" y="315.19" width="2.76" height="2.93" transform="translate(-137.88 328.55) rotate(-89.87)"/><rect class="cls-1" x="262.87" y="312.43" width="2.76" height="2.93" transform="translate(-135.12 325.8) rotate(-89.87)"/><rect class="cls-1" x="262.87" y="309.67" width="2.76" height="2.93" transform="translate(-132.35 323.06) rotate(-89.87)"/><rect class="cls-1" x="262.88" y="306.91" width="2.76" height="2.93" transform="translate(-129.59 320.31) rotate(-89.87)"/><rect class="cls-1" x="262.89" y="304.15" width="2.76" height="2.93" transform="translate(-126.82 317.56) rotate(-89.87)"/></svg>